<?xml version="1.0" encoding="UTF-8"?>
<svg width="60px" height="60px" viewBox="0 0 60 60" version="1.1" xmlns="http://www.w3.org/2000/svg" xmlns:xlink="http://www.w3.org/1999/xlink">
    <!-- Generator: sketchtool 56.3 (101010) - https://sketch.com -->
    <title>7E86A5C9-0217-47AE-8CD2-14B8B0C17032</title>
    <desc>Created with sketchtool.</desc>
    <g id="Page-1" stroke="none" stroke-width="1" fill="none" fill-rule="evenodd">
        <g id="Home" transform="translate(-594.000000, -1047.000000)" fill="#FFFFFF">
            <g id="Group-12" transform="translate(594.000000, 1047.000000)">
                <g id="logo-telegram">
                    <path d="M29.999944,0 C13.431467,0 0,13.4313544 0,29.9999438 L0,29.9999438 C0,46.5685332 13.431467,60 29.999944,60 L29.999944,60 C46.568533,60 60,46.5685332 60,29.9999438 L60,29.9999438 C60,13.4313544 46.568533,0 29.999944,0 Z M11.998696,31.046026 C11.998696,31.046026 10.837169,30.633933 10.72476,29.7347699 L10.72476,29.7347699 C10.612238,28.8354944 12.036128,28.3481995 12.036128,28.3481995 L12.036128,28.3481995 L42.124426,16.5452083 C42.124426,16.5452083 44.597546,15.4586586 44.597546,17.2572097 L44.597546,17.2572097 L39.239213,44.2729076 C39.239213,44.2729076 38.489779,46.1464358 36.428977,45.2471603 L36.428977,45.2471603 L28.804132,39.4014197 L28.805031,39.4020942 L23.914097,43.8612643 C23.914097,43.8612643 23.531792,44.151393 23.113517,43.9695146 L23.113517,43.9695146 L24.101483,35.5424037 C24.101483,35.5424037 37.815435,23.21491 38.377482,22.6904075 L38.377482,22.6904075 C38.939529,22.1656803 38.752143,22.0532708 38.752143,22.0532708 L38.752143,22.0532708 C38.789575,21.4163589 37.740458,22.0532708 37.740458,22.0532708 L37.740458,22.0532708 L19.567561,33.5941232 L11.998696,31.046026 Z" id="Shape"></path>
                </g>
            </g>
        </g>
    </g>
</svg>