<?xml version="1.0" encoding="UTF-8"?>
<svg width="60px" height="60px" viewBox="0 0 60 60" version="1.1" xmlns="http://www.w3.org/2000/svg" xmlns:xlink="http://www.w3.org/1999/xlink">
    <!-- Generator: sketchtool 56.3 (101010) - https://sketch.com -->
    <title>04784236-E72C-4321-9488-C7501B55C0B0</title>
    <desc>Created with sketchtool.</desc>
    <g id="Page-1" stroke="none" stroke-width="1" fill="none" fill-rule="evenodd">
        <g id="Home" transform="translate(-786.000000, -1047.000000)" fill="#FEFEFE">
            <g id="Group-12" transform="translate(594.000000, 1047.000000)">
                <g id="logo-git" transform="translate(192.000000, 0.000000)">
                    <path d="M29.998158,0 C13.432781,0 0,13.7731489 0,30.7620466 C0,44.3501436 8.594843,55.8800102 20.517495,59.9473755 C22.018416,60.2287299 22.565378,59.280811 22.565378,58.465072 C22.565378,57.7343058 22.539595,55.8007022 22.524862,53.232635 C14.180479,55.0925955 12.41989,49.1105094 12.41989,49.1105094 C11.055249,45.5567575 9.088398,44.6107269 9.088398,44.6107269 C6.364641,42.701671 9.294659,42.741325 9.294659,42.741325 C12.305709,42.9584777 13.889503,45.9098668 13.889503,45.9098668 C16.565378,50.6116958 20.909761,49.2540191 22.620626,48.4666043 C22.893186,46.4782405 23.666667,45.1224521 24.524862,44.3539202 C17.86372,43.5778351 10.860037,40.9399014 10.860037,29.1513398 C10.860037,25.7939695 12.029466,23.0484035 13.948435,20.8976472 C13.639042,20.1196739 12.609576,16.9926743 14.241252,12.75914 C14.241252,12.75914 16.760589,11.930183 22.491713,15.9106872 C24.883978,15.2290164 27.451197,14.8872369 30.001842,14.8759072 C32.548803,14.8872369 35.116022,15.2290164 37.511971,15.9106872 C43.239411,11.930183 45.753223,12.75914 45.753223,12.75914 C47.390424,16.9926743 46.360958,20.1196739 46.051565,20.8976472 C47.974217,23.0484035 49.13628,25.7939695 49.13628,29.1513398 C49.13628,40.9682256 42.121547,43.5683937 35.438306,44.3312608 C36.515654,45.2791797 37.475138,47.158023 37.475138,50.0263275 C37.475138,54.1390117 37.438306,57.456728 37.438306,58.465072 C37.438306,59.2864759 37.977901,60.2438362 39.500921,59.943599 C51.410681,55.8686805 60,44.346367 60,30.7620466 C60,13.7731489 46.567219,0 29.998158,0" id="Path"></path>
                </g>
            </g>
        </g>
    </g>
</svg>